PathFileType	4	(X/Y/Z)	Patient4_TMGait_0pt6_01_left_37.trc.trc
DataRate	CameraRate	NumFrames	NumMarkers	Units	OrigDataRate	OrigDataStartFrame	OrigNumFrames
80.924855491330	80.924855491330	6	33	mm	80.924855491330	89	       141
Frame#	Time	Sacral			L.Shoulder			Chest			R.Shoulder			Neck			R.ASIS			L.ASIS			R.Thigh.Superior			R.Thigh.Lateral			R.Thigh.Inferior			R.Patella			L.Thigh.Superior			L.Thigh.Lateral			L.Thigh.Inferior			L.Patella			L.Shank.Superior			L.Shank.Lateral			L.Shank.Inferior			R.Shank.Superior			R.Shank.Lateral			R.Shank.Inferior			R.Heel			R.Midfoot.Superior			R.Midfoot.Lateral			R.Toe			L.Heel			L.Midfoot.Lateral			L.Midfoot.Superior			L.Toe			L.Elbow			L.Wrist			R.Elbow			R.Wrist			
		X1	Y1	Z1	X2	Y2	Z2	X3	Y3	Z3	X4	Y4	Z4	X5	Y5	Z5	X6	Y6	Z6	X7	Y7	Z7	X8	Y8	Z8	X9	Y9	Z9	X10	Y10	Z10	X11	Y11	Z11	X12	Y12	Z12	X13	Y13	Z13	X14	Y14	Z14	X15	Y15	Z15	X16	Y16	Z16	X17	Y17	Z17	X18	Y18	Z18	X19	Y19	Z19	X20	Y20	Z20	X21	Y21	Z21	X22	Y22	Z22	X23	Y23	Z23	X24	Y24	Z24	X25	Y25	Z25	X26	Y26	Z26	X27	Y27	Z27	X28	Y28	Z28	X29	Y29	Z29	X30	Y30	Z30	X31	Y31	Z31	X32	Y32	Z32	X33	Y33	Z33	

89	46.147428571429	745.068055511585	997.965180795967	466.962731550864	894.069368359477	1436.501608353547	293.968147890371	1003.905401458521	1368.107272271806	450.106908323822	921.558757578775	1429.841129947154	627.852937263861	878.108613796794	1491.886018962752	449.476089776895	976.734170753308	936.944960189963	574.833540576968	952.297143338454	961.599022748316	300.368298787078	1035.776908490916	747.107519490157	537.488572970284	969.124135663440	629.939763472706	598.436239786951	1049.896754891165	586.774042533224	515.332533088432	1060.552642002245	495.891465474525	521.954643940928	986.659069162187	738.181332344629	318.390332494080	889.613392721174	627.657281683869	259.784416204043	976.139121855643	538.981493558270	310.518347499790	964.587899216718	453.758522535024	307.796955472017	894.670399647358	398.328999425438	309.624331705780	750.490218754353	355.070956061671	273.623512949516	741.190276594733	228.202644346043	334.821559977445	1032.007111688083	406.032870296093	529.517890811049	961.459483503355	299.550427690177	586.531092528269	1008.818571028460	206.751359450161	525.396827414363	881.355655546333	41.074722558045	484.941364719591	1047.636479237204	97.205381027338	533.271675982792	958.106777932848	36.538236492629	567.190118064380	1165.692859854036	47.333766596024	573.777273181128	553.190421583035	160.924732678589	387.997081979609	607.491739474090	110.573182075865	309.303506095343	712.170172855993	125.009598055197	323.185966552423	792.701180570350	31.385230188618	303.836999790978	926.651583833163	1087.323735318393	163.945284611023	1126.426528548666	918.958466191627	143.825228641161	863.195222702664	1082.407338515280	734.563717377050	931.421791246541	831.147481274550	750.921403378807	
90	46.159785714286	745.166043214088	998.285196973765	470.090995867415	892.337541679486	1437.160001574597	296.418304355803	1003.753582301438	1368.664646023937	451.478505480481	922.975891585931	1429.943940719283	630.108694215455	877.998246986354	1492.267736115804	452.307283691371	977.461818572466	937.583477899293	576.628704166981	951.673268512608	961.970803145484	302.331029444534	1034.442547361169	746.035453683677	540.651106687004	965.797316844295	629.754982677457	600.636883754732	1046.445296911595	585.891952078322	517.840230260364	1055.908343610027	495.050743213739	523.984965413086	992.109989047573	740.925130623971	320.348956135729	900.142630336261	628.017393826922	260.078735085247	989.425248544653	541.415343293259	311.004424229696	979.322454223870	454.966791059540	307.455238685275	907.577080001523	399.556655027818	309.379746984539	761.828284585105	361.267205120846	273.451197731996	748.237014655659	234.881870750877	334.603748348483	1026.848431268702	405.409195886735	531.133513415846	955.678598833162	299.164805642017	587.601284528882	1002.416245294241	206.295488284617	526.079181463412	874.117528454875	41.113666913050	485.029454049061	1040.507733909855	96.924934142222	533.502382772397	950.810987363593	36.503945559197	567.321831287284	1158.534139028231	46.629408907447	574.032627257251	558.003500880189	177.235419519059	388.012914934263	609.316324988016	123.721241257838	309.154267502742	714.989282009466	131.916132626558	322.756418839597	789.190891924978	31.193661633855	302.951241031083	920.187872787885	1086.742631574593	167.812220962014	1111.187817802219	908.451062707440	146.362730484912	873.812098913167	1080.985736330186	738.420661535338	953.157331635262	832.808022149672	753.149068381827	
91	46.172142857143	745.020896867190	998.647394627225	473.086487255047	890.546843286683	1437.727361481438	298.680543086558	1003.541506149308	1369.124248716935	452.635555015228	924.394912731656	1430.012121784437	632.162009072044	877.906674187753	1492.611574631668	454.959944354856	977.926370652716	938.193430955286	578.412271312906	950.846463584727	962.278693141414	304.351421310146	1032.843700538279	745.028620644739	543.911746317448	962.180509264295	629.595852180717	602.869443182739	1042.752500078229	585.053933116100	520.450136183888	1050.980525409232	494.273967089740	526.134147772227	997.296463250510	743.976802806307	322.465818555001	910.519283976799	628.929678709663	260.360180908808	1002.332347137915	544.540884358314	311.657059456066	993.894757151660	456.985234775147	307.317774218090	920.673931847411	401.393774852130	309.214890349459	773.636828977303	367.493571206755	273.366352192330	756.311750493149	241.632337982797	334.535293379923	1021.472615739521	404.846801784592	532.819410418712	949.699122107193	298.811980735725	588.716560748519	995.916469761954	205.898910536628	526.828355314708	866.828842102135	41.181345733604	485.121074194189	1033.340908549947	96.631842722353	533.760775154983	943.463439861239	36.474015870259	567.454310490817	1151.326504101921	45.869471794016	574.301232347038	564.445837499906	192.451568354159	388.322476450426	612.953642452683	136.467477608626	309.117885265865	719.348747378100	139.133057984777	322.391790402661	787.783483936324	31.620176232244	301.720167730200	913.699002562340	1086.156464884144	171.508559074384	1095.187944532713	898.254790626365	149.123226874145	884.658744975386	1079.794688779299	742.071472315675	975.154785481831	835.240612421621	755.011663306582	
92	46.184500000000	744.652643349002	999.096303103248	475.943189623894	888.748695377130	1438.247025695353	300.748985299286	1003.279394022650	1369.531136330571	453.594428462765	925.806142872318	1430.125056981082	634.001550176500	877.836232753592	1492.972830629451	457.400408111364	978.132328536777	938.811007215105	580.180039588256	949.828009342557	962.583070377105	306.415323391060	1030.980641870501	744.134940501341	547.145302832479	958.322459732422	629.508677058486	605.079196137131	1038.815898685709	584.285596779613	523.068309860411	1045.771646908007	493.588034140379	528.320370280637	1002.108487764610	747.367881564903	324.724388143475	920.518877177406	630.451963334642	260.656594673465	1014.654160829954	548.382262361334	312.402900145404	1008.095251236879	459.847296949994	307.276260591957	933.783315432405	403.854931652170	309.064527441680	785.719468834361	373.563989990619	273.372673928169	765.423063437238	248.162154443283	334.554744637485	1015.888422807115	404.374143451854	534.526151646791	943.526861278185	298.527764085520	589.852826735146	989.325911497559	205.588138196389	527.631452801198	859.491396116654	41.281642657773	485.225627346643	1026.136845191117	96.354858606189	534.041281432374	936.074732721986	36.453351126582	567.586084662970	1144.073692011716	45.097363107048	574.573138218212	572.487538030318	205.794165574970	388.887737604919	618.554224641884	148.110408510057	309.167088666772	725.440887415026	146.266964999037	322.040507608542	789.026108217821	32.732299733462	300.148222596496	907.193240546079	1085.610381612445	175.043126841208	1078.477518319195	888.503652110563	152.114005850197	895.669918225231	1078.919278716700	745.439217687172	997.269046852544	838.547021341863	756.470026023048	
93	46.196857142857	744.094337123669	999.671133506661	478.664782650385	886.988273592400	1438.765517974262	302.627018900738	1002.976097411170	1369.936280404371	454.381551571468	927.197189681641	1430.361378125439	635.626114874727	877.781750946093	1493.404803941789	459.602643472780	978.090874386116	939.466578998418	581.919415122128	948.639544973741	962.946494475413	308.494968527542	1028.847213235531	743.382462163065	550.239918699930	954.248159532871	629.529744460704	607.217104249589	1034.613446914376	583.603068093963	525.610253038807	1040.268018795425	493.013730157406	530.466889313905	1006.464340470025	751.115245257975	327.086208789109	929.947808373787	632.600111417667	260.989536835190	1026.232772957839	552.925576241376	313.154991536433	1021.747815897915	463.550437099922	307.230741385882	946.762028682175	406.916283017021	308.870123383395	797.920830527487	379.260001617043	273.450684056076	775.595279616291	254.160768949112	334.588776511902	1010.088104002320	404.014900732387	536.206982812492	937.156127988036	298.339761874558	590.984952715714	982.642363288116	205.385234421069	528.474041956601	852.108394090338	41.416638502496	485.348705904946	1018.901204052420	96.118848635200	534.344100286441	928.656534029083	36.444515354502	567.714219901508	1136.780645377757	44.353499344253	574.839437137134	582.087434853664	216.565427352804	389.623013683689	626.241891895007	157.979710639125	309.247665448109	733.444693032169	152.886547094901	321.649500216489	793.412435739370	34.486283019026	298.271847054965	900.664774720888	1085.155007036645	178.431833114936	1061.119076212328	879.332114564256	155.337759322335	906.769764357774	1078.440552651250	748.460842258678	1019.363893150713	842.824903299431	757.486944417420	
94	46.209214285714	743.385813321901	1000.400976217637	481.259622116380	885.300874702718	1439.323981498383	304.325103354057	1002.639675983976	1370.386955181122	455.029004359442	928.555270846540	1430.786255520557	637.043727687815	877.733311942227	1493.949473824825	461.551716619167	977.818225406199	940.179031469506	583.611090582745	947.309268406936	963.424281782112	310.551951015901	1026.434577808543	742.780737114178	553.102281519999	949.968398090417	629.682615704896	609.244047477369	1030.114744541427	583.014128772912	528.006578787412	1034.450475682845	492.565456976078	532.511078759999	1010.311085182118	755.213576392273	329.491975491711	938.651516326006	635.343385978935	261.373784382845	1036.955066359199	558.114803905814	313.830413633262	1034.709277762839	468.052297556394	307.110257345432	959.498885957521	410.514814159589	308.595114124147	810.131458178103	384.344010173461	273.562656420444	786.858419499708	259.326161488531	334.564146826741	1004.056230780440	403.785204760355	537.822630327960	930.577065425422	298.265500860130	592.090366712366	975.858687611763	205.304495884089	529.341294775201	844.683077930043	41.587144404108	485.492351838097	1011.641832080818	95.941654413193	534.672183979332	921.219433903254	36.448078941476	567.836286345123	1129.452172843048	43.670625391795	575.093032350617	593.207898396709	224.212887004414	390.403667284696	636.107542742441	165.502261831725	309.283459029291	743.506023083944	158.567999067732	321.168640274249	801.321527927987	36.719009278448	296.153053853305	894.095955912607	1084.837173552900	181.693065676864	1043.191732254673	870.865990395167	158.792809958143	917.874839254831	1078.423333166374	751.092030804573	1041.314055693271	848.157678322948	758.031767124938	
